<?xml version="1.0" encoding="UTF-8"?>
<svg id="katman_2" data-name="katman 2" xmlns="http://www.w3.org/2000/svg" viewBox="0 0 224.09 222.12">
  <defs>
    <style>
      .cls-1 {
        fill: #9ee7d1;
      }

      .cls-2 {
        fill: #1e3c73;
      }

      .cls-3 {
        fill: #fb9972;
      }

      .cls-4 {
        fill: #f07150;
      }

      .cls-5 {
        fill: #09a993;
      }

      .cls-6 {
        fill: #fefefe;
      }

      .cls-7 {
        fill: #96afda;
      }
    </style>
  </defs>
  <g id="Layer_1" data-name="Layer 1">
    <path class="cls-4" d="M162.38,60.35c14.36,14.26,21.84,32.67,21.9,52.82.06,19.86-7.61,36.91-21.67,50.84-13.18,13.06-30.22,20.19-48.78,20.05-17.45-.13-35.36-6.5-48.15-18.59,4.43-.67,10.27,1.26,14.76,1.85,13.19,1.75,27.88-.26,40.32-4.95,19.14-7.22,36.36-19.68,44.81-38.78,6.22-14.06,7.71-31.8,3.28-46.57-1.71-5.7-4.34-11.11-6.46-16.66Z"/>
    <path class="cls-2" d="M192.09,111.73c6.57-.01,26.31-1.22,31.44.95,2.45,6.48-3.85,28.92-6.44,35.84-.33.88-.68,1.75-1.03,2.61-.36.87-.72,1.73-1.1,2.59-.38.86-.76,1.71-1.16,2.56-.4.85-.81,1.69-1.22,2.53-.42.84-.85,1.67-1.29,2.5-.44.83-.89,1.65-1.35,2.47-.46.82-.93,1.63-1.41,2.43-.48.81-.97,1.61-1.47,2.4-.5.79-1.01,1.58-1.52,2.36-.52.78-1.05,1.56-1.58,2.32-.54.77-1.08,1.53-1.64,2.28-.56.76-1.12,1.5-1.69,2.24-.57.74-1.16,1.48-1.75,2.2-.59.73-1.19,1.45-1.8,2.16-.61.71-1.23,1.42-1.85,2.11-.63.7-1.26,1.39-1.91,2.07-.64.68-1.3,1.36-1.95,2.02-.66.67-1.33,1.32-2,1.97-.68.65-1.36,1.29-2.05,1.92-.69.63-1.39,1.26-2.1,1.87-.71.61-1.42,1.22-2.14,1.82-.72.6-1.45,1.19-2.19,1.77-.74.58-1.48,1.15-2.23,1.71-.75.56-1.51,1.11-2.27,1.66-.76.54-1.53,1.08-2.31,1.6-.78.52-1.56,1.04-2.35,1.54-.79.5-1.59,1-2.39,1.49-.8.49-1.61.96-2.42,1.43-.81.47-1.63.92-2.46,1.37-.83.45-1.66.88-2.49,1.31-.84.42-1.68.84-2.52,1.24-.85.4-1.7.8-2.55,1.18-5.91,2.61-12.05,5.37-18.29,7.08-3.05-9.75-5.47-20.03-7.7-30,14.2-3.56,26.64-9.99,37.14-20.31,16.01-15.71,23.96-35.05,24.07-57.32Z"/>
    <path class="cls-6" d="M183.49,167.76c1.96.47,3.87,1.07,4.89,2.98.66,1.25.9,2.46.52,3.83-.6,2.15-1.95,3.03-3.83,4.01-.29-.04-.58-.07-.87-.13-1.8-.33-3.25-1.07-4.17-2.73-.68-1.24-.7-2.53-.38-3.88.5-2.09,2.13-3.08,3.84-4.08Z"/>
    <path class="cls-6" d="M193.64,150.73c.37-.02.74-.04,1.11-.04,1.78,0,3.16.35,4.39,1.73.92,1.03,1.3,2.23,1.18,3.61-.19,2.21-1.27,3.24-2.88,4.57-2.02.25-3.75.45-5.4-1.03-1.05-.94-1.44-2.2-1.39-3.57.09-2.4,1.34-3.68,2.99-5.27Z"/>
    <path class="cls-1" d="M117.54,1.22c25.27-.5,50.1,11.68,68.97,27.77,13.29,11.33,25.55,28.78,31.21,45.45,3.31,9.73,4.95,20.06,5.77,30.27-10.67-.63-21.44-.59-32.13-.8-2.69-16.61-7.68-32.26-19.11-45.03-.87-.97-1.77-1.93-2.69-2.86-.92-.93-1.86-1.84-2.83-2.73-.96-.89-1.95-1.75-2.96-2.58-1.01-.84-2.03-1.65-3.08-2.44-1.05-.79-2.11-1.55-3.19-2.28-1.08-.74-2.18-1.44-3.3-2.13-1.12-.68-2.25-1.34-3.4-1.96-1.15-.63-2.31-1.23-3.49-1.8-1.18-.57-2.37-1.11-3.57-1.62-1.2-.51-2.42-1-3.65-1.45-1.23-.45-2.47-.88-3.72-1.27-1.25-.39-2.51-.76-3.77-1.09-1.27-.33-2.54-.63-3.82-.9-1.28-.27-2.57-.51-3.86-.72-1.29-.21-2.59-.38-3.89-.53-1.3-.14-2.61-.26-3.91-.34l.42-30.95Z"/>
    <path class="cls-5" d="M106.78.05c1.26-.04,1.52-.21,2.66.43,1.27,9.85.48,21,.34,30.95-16.74,2.1-32.57,7.05-46.13,17.43-17.42,13.33-27.36,30.89-30.26,52.52l-29.46-.06c-.98.02-1.62-.05-2.55-.4-.26-.62-.32-.7-.43-1.47-.52-3.63.97-8.55,1.8-12.1,4.4-18.84,11.64-35.84,24.77-50.34C48.1,14.26,76.16,1.65,106.78.05Z"/>
    <path class="cls-6" d="M38.69,45.85c2.1.14,3.93.4,5.45,1.99,1.05,1.1,1.58,2.4,1.41,3.95-.23,2.14-1.45,3.18-3.02,4.42-.62.05-1.11.11-1.74.08-1.77-.09-3.37-.75-4.47-2.18-.84-1.09-1.13-2.38-.92-3.74.34-2.24,1.61-3.22,3.29-4.52Z"/>
    <path class="cls-7" d="M0,111.9c10.81-.36,21.7-.08,32.52-.06,1.73,23.71,10.16,43.11,28.46,58.9,17.82,15.38,38,21.98,61.34,20.13,1.21,4.54,6.66,26.53,5.12,30.03-4.67.65-9.37,1.05-14.09,1.19-28.38.67-57.63-11.08-78.07-30.68-.67-.64-1.33-1.29-1.99-1.95-.66-.66-1.3-1.33-1.94-2-.64-.68-1.27-1.36-1.89-2.05-.62-.69-1.24-1.39-1.84-2.09-.61-.71-1.2-1.42-1.79-2.14-.59-.72-1.17-1.45-1.74-2.18-.57-.73-1.13-1.47-1.68-2.22-.55-.75-1.1-1.5-1.63-2.26-.53-.76-1.06-1.53-1.57-2.3-.52-.77-1.02-1.55-1.52-2.34-.5-.79-.98-1.58-1.46-2.38-.48-.8-.94-1.6-1.4-2.41-.46-.81-.91-1.62-1.34-2.44-.44-.82-.87-1.65-1.28-2.48-.42-.83-.83-1.66-1.22-2.5-.4-.84-.79-1.69-1.16-2.53-.38-.85-.74-1.7-1.1-2.56-.36-.86-.7-1.72-1.04-2.59-.34-.87-.66-1.74-.97-2.61-.31-.87-.62-1.75-.91-2.64-.29-.88-.57-1.77-.85-2.66-.27-.89-.53-1.78-.78-2.68-.25-.9-.49-1.79-.72-2.69-.23-.9-.44-1.8-.65-2.71-.21-.91-.4-1.81-.58-2.73-.18-.91-.36-1.82-.52-2.74-.16-.92-.31-1.83-.45-2.75-.14-.92-.27-1.84-.38-2.76-.12-.92-.22-1.85-.32-2.77-.09-.92-.18-1.85-.25-2.78-.07-.93-.13-1.85-.18-2.78-.05-.93-.09-1.86-.11-2.79Z"/>
    <path class="cls-6" d="M54.3,180.28c2.24-.1,4.21-.3,6.08,1.18,1.06.83,1.61,1.95,1.61,3.3,0,2.16-1.23,3.52-2.53,5.07-2.18.2-4.16.41-5.97-1.1-1.08-.89-1.51-1.95-1.6-3.32-.13-2.1,1.12-3.65,2.41-5.14Z"/>
    <path class="cls-6" d="M37.62,165.75c2.01.19,4.19.5,5.45,2.29.83,1.18,1.01,2.07.82,3.5-.28,2.09-1.97,3.48-3.53,4.66-.31,0-.62,0-.93-.01-1.79-.11-3.41-.56-4.55-2.07-.81-1.08-.98-2.3-.77-3.59.38-2.35,1.68-3.4,3.51-4.78Z"/>
    <path class="cls-3" d="M65.67,165.47c-.85-.55-1.65-1.38-2.38-2.09-14.68-14.35-23.26-32.93-23.34-53.56,0-1.13.04-2.26.1-3.39.06-1.13.15-2.26.27-3.38.12-1.13.26-2.25.43-3.37.17-1.12.37-2.23.6-3.34.23-1.11.48-2.21.76-3.31.28-1.1.59-2.18.92-3.26.34-1.08.7-2.15,1.08-3.22.39-1.06.8-2.12,1.24-3.16.44-1.04.91-2.07,1.4-3.09.49-1.02,1-2.03,1.54-3.02.54-.99,1.1-1.97,1.69-2.94.59-.97,1.2-1.92,1.83-2.85.64-.94,1.29-1.86,1.97-2.76.68-.9,1.38-1.79,2.11-2.66.72-.87,1.47-1.72,2.23-2.55.77-.83,1.55-1.65,2.36-2.44,13.35-13.32,32.78-21.44,51.63-21.33,18.77.11,36.91,7.2,50.24,20.6,2.12,5.55,4.75,10.97,6.46,16.66,4.43,14.77,2.94,32.51-3.28,46.57-8.45,19.11-25.67,31.56-44.81,38.78-12.44,4.69-27.12,6.7-40.32,4.95-4.49-.59-10.33-2.52-14.76-1.85Z"/>
    <path class="cls-6" d="M107.54,72.69c2.68-.05,5.36.02,8.04.05v7.84c3.28.2,6.3.87,9.29,2.22,6.58,2.96,9.68,8.11,12.02,14.61l-9.6,1.92c-.5-1.76-.95-3.66-1.74-5.31-1.98-4.14-6-5.34-10.01-6.68l-.11,21.96c4.99,1.06,10.1,2.83,14.11,6.07,3.79,3.06,6.43,7.45,6.76,12.37.29,4.35-1.21,8.49-4.11,11.73-4.4,4.9-10.39,6.62-16.73,6.94l-.11,8.16c-2.54.27-5.24.21-7.8.3l.03-8.44c-3.81-.07-7.33-.62-10.75-2.44-6.09-3.25-8.86-8.9-10.85-15.19,2.98-.75,6-1.37,9-2.05.53,1.74,1.17,3.5,2.01,5.12,2.34,4.53,6.14,6.35,10.73,7.86l-.05-23.92c-4.69-1.1-9.08-2.27-13.03-5.2-3.49-2.59-6.02-6.38-6.56-10.74-.07-.53-.11-1.06-.12-1.59-.01-.53,0-1.06.04-1.6.04-.53.11-1.06.21-1.58.1-.52.22-1.04.37-1.55.15-.51.33-1.01.53-1.51.2-.49.43-.97.69-1.44.25-.47.53-.92.83-1.36.3-.44.62-.86.97-1.27,3.97-4.67,10-6.72,15.91-7.32l.03-7.94Z"/>
    <path class="cls-4" d="M106.79,87.8c1.34,1.48.78,17.05.77,20.02-2.26-.81-4.22-1.78-6.3-2.96-.86-.81-1.81-1.65-2.44-2.67-.14-.22-.27-.46-.38-.69-.12-.24-.22-.48-.31-.73-.09-.25-.17-.5-.23-.76-.06-.26-.11-.52-.15-.78-.04-.26-.06-.53-.06-.79,0-.26,0-.53.02-.79.02-.26.06-.53.11-.79.05-.26.11-.52.19-.77,1.25-4.05,5.22-6.5,8.78-8.28Z"/>
    <path class="cls-3" d="M115.47,116.74c2.48,1.58,5.1,3.12,7.44,4.91,1.89,1.45,3.7,3.66,3.89,6.12.23,2.93-1.52,5.11-3.24,7.27-2.51,2.05-4.99,3.15-8,4.24.01-7.51-.02-15.02-.09-22.53Z"/>
  </g>
</svg>